<svg width="20" height="20" viewBox="0 0 20 20" fill="none" xmlns="http://www.w3.org/2000/svg">
<path d="M7.66816 13.1416C7.66816 14.4391 6.97862 15.4925 6.12755 15.4925C5.27541 15.4925 4.58587 14.4391 4.58587 13.1416C4.58587 11.8425 5.27541 10.7902 6.12755 10.7902C6.97862 10.7907 7.66816 11.843 7.66816 13.1416ZM13.7582 10.7907C12.906 10.7907 12.2165 11.843 12.2165 13.1421C12.2165 14.4396 12.906 15.493 13.7582 15.493C14.6092 15.493 15.2988 14.4396 15.2988 13.1421C15.2988 11.843 14.6092 10.7907 13.7582 10.7907ZM20 10.8873C20 15.0482 17.8809 18.4208 12.2755 18.4208H7.7245C1.92643 18.4208 0 15.0482 0 10.8873C0 9.15081 0.602613 7.55225 1.61466 6.2778C0.844625 3.3683 1.99136 1.57978 1.99136 1.57978C3.69885 1.55939 5.22444 2.56124 6.26868 3.48797C6.74036 3.39996 7.22707 3.35381 7.72558 3.35381H12.2755C12.7933 3.35381 13.2977 3.40372 13.785 3.49816C14.8282 2.57036 16.3612 1.561 18.072 1.58085C18.072 1.58085 18.073 1.583 18.0752 1.58622C18.0752 1.58622 18.0752 1.58622 18.0763 1.58729C18.0779 1.59051 18.0822 1.59588 18.0864 1.60124C18.0864 1.60178 18.0864 1.60285 18.0875 1.60393C18.0956 1.61681 18.1063 1.6372 18.1208 1.66349C18.1208 1.66403 18.1208 1.66456 18.1224 1.66564C18.1299 1.67798 18.1364 1.69408 18.1465 1.71018C18.1476 1.71125 18.1476 1.71179 18.1476 1.71232C18.3891 2.17756 19.1119 3.85608 18.4342 6.34005C19.4178 7.60377 20 9.17818 20 10.8873ZM17.3674 13.0235C17.0857 10.9984 16.3054 9.37083 14.13 9.49371C12.9194 9.56401 11.3117 9.91495 9.71157 9.92944C8.3518 9.94178 6.99096 9.62893 5.9612 9.56991C3.78579 9.44702 3.00555 10.9962 2.72491 13.0235C2.44265 15.0449 3.69403 16.9628 6.19946 17.1045C8.72314 17.2499 11.2538 17.2499 13.7791 17.1045C16.2829 16.9623 17.6496 15.0439 17.3674 13.0235Z" fill="#383838"/>
</svg>
