<svg width="20" height="20" viewBox="0 0 20 20" fill="none" xmlns="http://www.w3.org/2000/svg">
<path d="M19.7222 4.37238L10.3513 11.6405C10.2472 11.7189 10.1236 11.7578 10 11.7578C9.87641 11.7578 9.75281 11.7189 9.64867 11.6405L0.277813 4.37238C0.104062 4.64488 0 4.96601 0 5.31249V14.6875C0 15.6568 0.788516 16.4453 1.75781 16.4453H18.2422C19.2115 16.4453 20 15.6568 20 14.6875V5.31249C20 4.96601 19.8959 4.64488 19.7222 4.37238Z" fill="white"/>
<path d="M18.2422 3.55469H1.7578C1.57741 3.55469 1.40674 3.58988 1.2428 3.64059L9.99999 10.4395L18.7572 3.64059C18.5932 3.58988 18.4226 3.55469 18.2422 3.55469Z" fill="white"/>
</svg>
