<svg width="18" height="18" viewBox="0 0 18 18" fill="none" xmlns="http://www.w3.org/2000/svg">
<g clip-path="url(#clip0)">
<path d="M11.8516 1.42105C11.8516 2.53139 11.6782 3.61894 11.3381 4.64969C11.1647 5.15274 11.2983 5.724 11.6356 6.05462L13.1789 8.0981C11.9274 10.4428 10.4277 11.9435 8.10001 13.1779L6.10485 11.6763C5.72685 11.2983 5.17357 11.1628 4.65537 11.3248C3.618 11.6678 2.52948 11.8421 1.42105 11.8421C0.637565 11.8421 0 12.4797 0 13.2631L0 16.5789C0 17.3624 0.637565 18 1.42105 18C10.5622 18 18 10.5622 18 1.42105C18 0.637566 17.3624 0 16.5789 0L13.2726 0C12.4892 0 11.8516 0.637566 11.8516 1.42105Z" fill="white"/>
</g>
<defs>
<clipPath id="clip0">
<rect width="18" height="18" fill="white" transform="translate(0 18) rotate(-90)"/>
</clipPath>
</defs>
</svg>
