<svg width="8" height="14" viewBox="0 0 8 14" fill="none" xmlns="http://www.w3.org/2000/svg">
<path d="M1.53033 0.46967C1.23744 0.176777 0.762563 0.176777 0.46967 0.46967C0.176777 0.762563 0.176777 1.23744 0.46967 1.53033L1.53033 0.46967ZM6.29289 6.29289L5.76256 6.82322H5.76256L6.29289 6.29289ZM6.29289 7.70711L5.76256 7.17678H5.76256L6.29289 7.70711ZM0.46967 12.4697C0.176777 12.7626 0.176777 13.2374 0.46967 13.5303C0.762563 13.8232 1.23744 13.8232 1.53033 13.5303L0.46967 12.4697ZM0.46967 1.53033L5.76256 6.82322L6.82322 5.76256L1.53033 0.46967L0.46967 1.53033ZM5.76256 7.17678L0.46967 12.4697L1.53033 13.5303L6.82322 8.23744L5.76256 7.17678ZM5.76256 6.82322C5.86019 6.92085 5.86019 7.07915 5.76256 7.17678L6.82322 8.23744C7.50664 7.55402 7.50664 6.44598 6.82322 5.76256L5.76256 6.82322Z" fill="black"/>
</svg>
