<svg width="8" height="14" viewBox="0 0 8 14" fill="none" xmlns="http://www.w3.org/2000/svg">
<path d="M7.5303 1.53033C7.82319 1.23744 7.82319 0.762563 7.5303 0.46967C7.23741 0.176777 6.76253 0.176777 6.46964 0.46967L7.5303 1.53033ZM1.70708 6.29289L2.23741 6.82322H2.23741L1.70708 6.29289ZM1.70708 7.70711L2.23741 7.17678H2.23741L1.70708 7.70711ZM6.46964 13.5303C6.76253 13.8232 7.23741 13.8232 7.5303 13.5303C7.82319 13.2374 7.82319 12.7626 7.5303 12.4697L6.46964 13.5303ZM6.46964 0.46967L1.17675 5.76256L2.23741 6.82322L7.5303 1.53033L6.46964 0.46967ZM1.17675 8.23744L6.46964 13.5303L7.5303 12.4697L2.23741 7.17678L1.17675 8.23744ZM1.17675 5.76256C0.49333 6.44598 0.49333 7.55402 1.17675 8.23744L2.23741 7.17678C2.13978 7.07915 2.13978 6.92085 2.23741 6.82322L1.17675 5.76256Z" fill="black"/>
</svg>
