<svg width="24" height="24" viewBox="0 0 24 24" fill="none" xmlns="http://www.w3.org/2000/svg">
<path d="M19 15V7C19 5.89543 18.1046 5 17 5H7C5.89543 5 5 5.89543 5 7V15C5 15.5523 5.44772 16 6 16H18C18.5523 16 19 15.5523 19 15Z" stroke="white" stroke-width="1.5" stroke-linecap="round" stroke-linejoin="round"/>
<path d="M19.4913 16.4855L20.0913 17.4855C20.4912 18.152 20.0111 19 19.2338 19H4.76619C3.9889 19 3.50879 18.152 3.9087 17.4855L4.5087 16.4855C4.68942 16.1843 5.01493 16 5.36619 16H18.6338C18.9851 16 19.3106 16.1843 19.4913 16.4855Z" stroke="white" stroke-width="1.5" stroke-linecap="round" stroke-linejoin="round"/>
</svg>
