<?xml version="1.0" encoding="iso-8859-1"?>
<!-- Generator: Adobe Illustrator 19.0.0, SVG Export Plug-In . SVG Version: 6.00 Build 0)  -->
<svg version="1.1" id="Capa_1" xmlns="http://www.w3.org/2000/svg" xmlns:xlink="http://www.w3.org/1999/xlink" x="0px" y="0px"
	 viewBox="0 0 428.408 428.408" style="enable-background:new 0 0 428.408 428.408;" xml:space="preserve">
<g>
	<g>
		<g>
			<path d="M413.257,0H16.196C10.425,0,5.747,4.678,5.747,10.449v62.694c0,5.771,4.678,10.449,10.449,10.449h397.061
				c5.771,0,10.449-4.678,10.449-10.449V10.449C423.706,4.678,419.028,0,413.257,0z"/>
			<path d="M413.257,114.939h-94.041c-5.771,0-10.449,4.678-10.449,10.449v62.694c0,5.771,4.678,10.449,10.449,10.449h94.041
				c5.771,0,10.449-4.678,10.449-10.449v-62.694C423.706,119.617,419.028,114.939,413.257,114.939z"/>
			<path d="M413.257,229.878h-94.041c-5.771,0-10.449,4.678-10.449,10.449v62.694c0,5.771,4.678,10.449,10.449,10.449h94.041
				c5.771,0,10.449-4.678,10.449-10.449v-62.694C423.706,234.556,419.028,229.878,413.257,229.878z"/>
			<path d="M413.257,344.816h-94.041c-5.771,0-10.449,4.678-10.449,10.449v62.694c0,5.771,4.678,10.449,10.449,10.449h94.041
				c5.771,0,10.449-4.678,10.449-10.449v-62.694C423.706,349.494,419.028,344.816,413.257,344.816z"/>
			<path d="M261.747,114.939H16.196c-5.771,0-10.449,4.678-10.449,10.449V303.02c0,5.771,4.678,10.449,10.449,10.449h245.551
				c5.771,0,10.449-4.678,10.449-10.449V125.388C272.196,119.617,267.518,114.939,261.747,114.939z"/>
			<path d="M15.151,376.163h158.824c5.771,0,10.449-4.678,10.449-10.449s-4.678-10.449-10.449-10.449H15.151
				c-5.771,0-10.449,4.678-10.449,10.449S9.38,376.163,15.151,376.163z"/>
			<path d="M257.567,407.51H15.151c-5.771,0-10.449,4.678-10.449,10.449c0,5.771,4.678,10.449,10.449,10.449h242.416
				c5.771,0,10.449-4.678,10.449-10.449C268.016,412.188,263.338,407.51,257.567,407.51z"/>
		</g>
	</g>
</g>
<g>
</g>
<g>
</g>
<g>
</g>
<g>
</g>
<g>
</g>
<g>
</g>
<g>
</g>
<g>
</g>
<g>
</g>
<g>
</g>
<g>
</g>
<g>
</g>
<g>
</g>
<g>
</g>
<g>
</g>
</svg>
