<svg width="24" height="24" viewBox="0 0 24 24" fill="none" xmlns="http://www.w3.org/2000/svg">
<path d="M14.25 6C14.25 6.41421 14.5858 6.75 15 6.75C15.4142 6.75 15.75 6.41421 15.75 6H14.25ZM15.75 4C15.75 3.58579 15.4142 3.25 15 3.25C14.5858 3.25 14.25 3.58579 14.25 4H15.75ZM18 8.25C17.5858 8.25 17.25 8.58579 17.25 9C17.25 9.41421 17.5858 9.75 18 9.75V8.25ZM20 9.75C20.4142 9.75 20.75 9.41421 20.75 9C20.75 8.58579 20.4142 8.25 20 8.25V9.75ZM18 14.25C17.5858 14.25 17.25 14.5858 17.25 15C17.25 15.4142 17.5858 15.75 18 15.75V14.25ZM20 15.75C20.4142 15.75 20.75 15.4142 20.75 15C20.75 14.5858 20.4142 14.25 20 14.25V15.75ZM4 8.25C3.58579 8.25 3.25 8.58579 3.25 9C3.25 9.41421 3.58579 9.75 4 9.75V8.25ZM6 9.75C6.41421 9.75 6.75 9.41421 6.75 9C6.75 8.58579 6.41421 8.25 6 8.25V9.75ZM4 14.25C3.58579 14.25 3.25 14.5858 3.25 15C3.25 15.4142 3.58579 15.75 4 15.75V14.25ZM6 15.75C6.41421 15.75 6.75 15.4142 6.75 15C6.75 14.5858 6.41421 14.25 6 14.25V15.75ZM8.25 6C8.25 6.41421 8.58579 6.75 9 6.75C9.41421 6.75 9.75 6.41421 9.75 6L8.25 6ZM9.75 4C9.75 3.58579 9.41421 3.25 9 3.25C8.58579 3.25 8.25 3.58579 8.25 4L9.75 4ZM14.25 20C14.25 20.4142 14.5858 20.75 15 20.75C15.4142 20.75 15.75 20.4142 15.75 20H14.25ZM15.75 18C15.75 17.5858 15.4142 17.25 15 17.25C14.5858 17.25 14.25 17.5858 14.25 18H15.75ZM8.25 20C8.25 20.4142 8.58579 20.75 9 20.75C9.41421 20.75 9.75 20.4142 9.75 20H8.25ZM9.75 18C9.75 17.5858 9.41421 17.25 9 17.25C8.58579 17.25 8.25 17.5858 8.25 18H9.75ZM17.25 8V16H18.75V8H17.25ZM16 17.25H8V18.75H16V17.25ZM6.75 16V8H5.25V16H6.75ZM16 5.25H8V6.75H16V5.25ZM8 17.25C7.30964 17.25 6.75 16.6904 6.75 16H5.25C5.25 17.5188 6.48122 18.75 8 18.75V17.25ZM17.25 16C17.25 16.6904 16.6904 17.25 16 17.25V18.75C17.5188 18.75 18.75 17.5188 18.75 16H17.25ZM18.75 8C18.75 6.48122 17.5188 5.25 16 5.25V6.75C16.6904 6.75 17.25 7.30964 17.25 8H18.75ZM6.75 8C6.75 7.30964 7.30964 6.75 8 6.75V5.25C6.48122 5.25 5.25 6.48122 5.25 8H6.75ZM14.25 11V13H15.75V11H14.25ZM13 14.25H11V15.75H13V14.25ZM9.75 13V11H8.25V13H9.75ZM13 8.25H11V9.75H13V8.25ZM11 14.25C10.3096 14.25 9.75 13.6904 9.75 13H8.25C8.25 14.5188 9.48122 15.75 11 15.75V14.25ZM14.25 13C14.25 13.6904 13.6904 14.25 13 14.25V15.75C14.5188 15.75 15.75 14.5188 15.75 13H14.25ZM15.75 11C15.75 9.48122 14.5188 8.25 13 8.25V9.75C13.6904 9.75 14.25 10.3096 14.25 11H15.75ZM9.75 11C9.75 10.3096 10.3096 9.75 11 9.75V8.25C9.48122 8.25 8.25 9.48122 8.25 11H9.75ZM15.75 6V4H14.25V6H15.75ZM18 9.75H20V8.25H18V9.75ZM18 15.75H20V14.25H18V15.75ZM4 9.75H6V8.25H4V9.75ZM4 15.75H6V14.25H4V15.75ZM9.75 6L9.75 4L8.25 4L8.25 6L9.75 6ZM15.75 20V18H14.25V20H15.75ZM9.75 20L9.75 18H8.25L8.25 20H9.75Z" fill="white"/>
</svg>
